<?xml version="1.0" standalone="no"?>
<!DOCTYPE svg PUBLIC "-//W3C//DTD SVG 20010904//EN"
 "http://www.w3.org/TR/2001/REC-SVG-20010904/DTD/svg10.dtd">
<svg version="1.0" xmlns="http://www.w3.org/2000/svg"
 width="720.000000pt" height="720.000000pt" viewBox="0 0 720.000000 720.000000"
 preserveAspectRatio="xMidYMid meet">
<metadata>
Created by potrace 1.14, written by Peter Selinger 2001-2017
</metadata>
<g transform="translate(0.000000,720.000000) scale(0.100000,-0.100000)"
fill="#000000" stroke="none">
<path d="M0 6919 l0 -281 68 2 c89 3 85 4 105 -29 14 -23 15 -35 6 -60 -15
-42 -35 -51 -113 -51 l-66 0 0 -80 0 -80 80 0 c98 0 124 -11 151 -67 17 -36
20 -58 17 -123 -3 -71 -6 -82 -32 -109 -29 -30 -32 -31 -123 -31 l-93 0 0
-735 0 -735 79 0 c69 0 81 -3 104 -24 33 -31 43 -68 27 -107 -22 -51 -48 -62
-135 -54 l-75 7 0 -2181 0 -2181 3600 0 3600 0 0 3600 0 3600 -3600 0 -3600 0
0 -281z m4325 161 c319 -6 666 -15 770 -20 105 -6 431 -15 725 -21 771 -14
797 -16 771 -42 -8 -8 -153 -12 -479 -14 -257 -1 -642 -8 -857 -14 -857 -25
-2364 -14 -3390 25 -220 9 -525 20 -678 24 -250 8 -300 13 -286 26 12 11 512
29 1034 35 888 12 1743 12 2390 1z m-3634 -360 c6 0 7 -5 4 -11 -4 -6 2 -19
12 -29 17 -15 39 -18 149 -19 129 -1 289 -7 439 -17 44 -3 532 -7 1085 -9 553
-2 1027 -7 1055 -10 27 -4 120 -8 205 -10 85 -2 202 -11 260 -20 58 -8 173
-22 255 -31 83 -8 154 -19 159 -24 11 -11 -11 -40 -29 -40 -7 0 -33 -9 -57
-20 -50 -22 -93 -24 -708 -37 -464 -9 -483 -9 -885 5 -203 7 -491 15 -640 17
-148 3 -484 10 -745 16 -564 13 -555 14 -555 -66 0 -28 -3 -55 -7 -61 -5 -8 3
-14 25 -17 56 -10 2128 -18 2212 -9 l80 9 -102 2 c-57 0 -103 5 -103 9 0 19
105 32 258 33 89 0 167 -3 172 -6 5 -3 29 -10 52 -14 44 -8 41 -12 -22 -28
-39 -10 200 -21 730 -32 l305 -6 50 -29 c63 -37 72 -47 91 -92 19 -46 12 -112
-16 -147 -44 -56 -52 -57 -497 -57 -346 0 -1168 9 -2231 23 l-252 4 -25 -25
-25 -24 -40 21 c-37 19 -61 21 -350 26 -174 4 -310 3 -310 -2 0 -5 5 -14 12
-21 11 -11 21 -719 18 -1377 -1 -310 6 -411 28 -420 8 -3 254 -6 546 -6 304 0
547 -4 568 -10 55 -14 88 -59 88 -121 0 -44 -4 -54 -34 -84 -29 -29 -41 -34
-82 -35 -27 0 -272 0 -545 1 -273 1 -519 -2 -547 -6 l-50 -6 10 -32 c12 -38
11 -1089 -2 -1516 -12 -396 -28 -794 -40 -1025 -6 -104 -13 -266 -15 -360 -8
-238 -16 -355 -24 -355 -17 0 -26 209 -52 1170 -11 403 -9 974 6 2365 2 204 6
631 9 950 7 706 22 961 56 940 5 -3 7 75 4 182 -3 103 -5 193 -6 198 -1 37 14
287 19 315 l6 35 9 -27 c5 -16 14 -28 19 -28z m5943 -32 c15 -80 31 -340 46
-759 10 -251 16 -3491 7 -3507 -3 -4 -8 -221 -11 -482 -7 -487 -20 -796 -35
-863 -5 -21 -7 -55 -4 -76 5 -37 -9 -81 -26 -81 -42 0 -54 995 -52 4191 0 174
-4 356 -9 405 -13 121 -12 302 1 364 8 37 8 69 -1 118 -9 56 -9 80 4 134 8 35
22 165 31 287 16 242 23 301 35 301 4 0 10 -15 14 -32z m-3154 -917 c0 -12
102 -20 116 -9 14 10 270 13 359 3 39 -4 77 -13 85 -21 9 -7 35 -14 58 -15 24
-2 46 -7 48 -11 3 -4 16 -8 28 -8 25 0 51 -22 39 -33 -3 -4 -26 -7 -51 -7 -39
0 -44 2 -39 20 8 32 -14 36 -39 7 -12 -14 -24 -32 -27 -39 -3 -10 -8 -11 -26
0 -11 6 -29 12 -40 12 -11 0 -27 7 -35 16 -14 13 -21 13 -50 3 -28 -10 -40
-10 -66 3 l-32 15 27 7 c14 4 23 11 20 16 -9 15 -134 12 -180 -4 -50 -18 -122
-22 -155 -9 -26 11 -57 7 -66 -8 -7 -12 -54 -11 -54 1 0 15 -88 5 -108 -13
-21 -19 -49 -22 -72 -7 -11 7 -8 11 15 19 17 6 42 18 57 26 14 8 42 15 61 15
19 0 48 7 63 15 32 17 64 20 64 6z m-300 -96 c0 -8 -7 -15 -16 -15 -14 0 -14
3 -4 15 7 8 14 15 16 15 2 0 4 -7 4 -15z m-58 -7 c3 -7 -2 -19 -9 -28 -7 -8
-14 -19 -15 -25 -4 -30 -92 -68 -111 -48 -11 10 13 33 35 33 10 0 21 8 25 18
15 44 66 78 75 50z m22 -57 c3 -5 -1 -11 -9 -15 -9 -3 -15 0 -15 9 0 16 16 20
24 6z m736 -56 c0 -9 -6 -12 -15 -9 -8 4 -12 10 -9 15 8 14 24 10 24 -6z
m-1351 -559 c9 -10 8 -16 -4 -26 -8 -7 -15 -22 -15 -34 0 -25 -34 -167 -60
-251 -11 -33 -24 -80 -30 -104 -9 -32 -14 -41 -20 -30 -8 12 -76 15 -392 20
-322 5 -388 8 -413 21 -77 41 -105 118 -66 181 37 60 46 61 481 64 260 2 405
7 423 15 32 12 33 42 2 44 -37 2 -40 5 -21 19 17 13 17 15 3 21 -30 11 -19 39
19 53 30 11 38 11 45 0 7 -11 9 -10 9 4 0 20 23 23 39 3z m804 0 c4 -9 14 -12
25 -9 15 3 21 -2 26 -21 7 -30 -2 -76 -15 -76 -5 0 -21 -18 -36 -41 -25 -38
-29 -40 -62 -34 -78 14 -89 68 -25 125 19 16 34 33 34 38 0 12 22 32 36 32 6
0 14 -6 17 -14z m1585 -43 c-1 -80 2 -88 35 -110 29 -20 47 -23 128 -23 239
-1 328 -38 329 -137 0 -24 -4 -43 -9 -43 -5 0 -12 -8 -15 -18 -4 -10 -24 -28
-46 -41 -34 -19 -61 -23 -192 -29 l-153 -7 3 -30 c2 -29 2 -29 -13 -10 -9 11
-21 39 -27 63 -6 23 -14 45 -19 48 -5 3 -9 19 -9 36 0 16 -7 58 -16 92 -9 33
-16 78 -15 99 0 21 -6 49 -15 63 -16 23 -15 26 2 45 16 17 16 22 4 29 -12 8
-11 10 6 10 19 0 22 -6 22 -37z m-880 -39 c33 -9 28 -34 -7 -34 -40 0 -84 18
-76 30 7 11 48 13 83 4z m-637 -57 c-1 -4 -1 -14 -1 -22 0 -8 -7 -15 -15 -15
-16 0 -19 9 -9 35 6 15 26 17 25 2z m689 -11 c0 -3 -4 -16 -9 -29 -12 -30 -64
-46 -86 -27 -23 19 -18 48 8 53 31 6 87 8 87 3z m-919 -43 c42 -31 46 -50 8
-45 -13 1 -35 4 -49 5 -28 2 -38 30 -20 52 16 19 15 20 61 -12z m949 7 c0 -5
-7 -10 -16 -10 -8 0 -12 5 -9 10 3 6 10 10 16 10 5 0 9 -4 9 -10z m-280 -17
c0 -15 1 -15 14 2 13 17 14 17 48 -8 79 -60 164 -73 244 -36 45 22 45 22 72 2
52 -38 204 -60 277 -40 39 11 84 36 85 48 0 3 -21 5 -47 5 -42 -1 -48 2 -48
19 0 18 7 20 77 21 l76 0 38 -115 c37 -115 37 -115 31 -241 -8 -143 1 -214 39
-313 15 -39 27 -86 28 -106 1 -34 0 -35 -60 -54 -59 -17 -62 -20 -60 -49 0
-17 -5 -33 -11 -35 -7 -3 -13 2 -13 11 0 8 -11 35 -25 60 -14 25 -25 51 -25
59 0 18 -29 36 -105 66 -33 12 -76 29 -95 37 -43 17 -184 29 -175 14 4 -6 -12
-11 -42 -11 -82 -3 -126 -8 -153 -18 -14 -6 -47 -13 -75 -16 -27 -3 -60 -12
-72 -20 -12 -8 -29 -15 -38 -15 -8 0 -15 -8 -15 -19 0 -27 -29 -91 -41 -91 -6
0 -8 -9 -4 -19 11 -36 -24 -48 -112 -39 -43 4 -108 5 -145 2 -46 -5 -68 -3
-68 4 0 6 -10 22 -22 36 -55 61 -68 80 -59 89 15 15 1 37 -25 37 -12 0 -27 7
-32 16 -7 12 -26 16 -83 16 -41 0 -85 0 -99 1 -14 0 -58 0 -97 1 -40 1 -73 4
-73 9 0 4 -24 7 -54 7 -45 0 -59 -5 -92 -31 -56 -45 -111 -79 -128 -79 -17 0
-48 -39 -40 -52 3 -4 -9 -8 -25 -8 -18 0 -32 6 -32 13 -1 6 -3 23 -5 37 -4 39
6 60 33 71 24 9 25 12 18 56 -4 26 -13 56 -21 67 -8 11 -14 37 -14 58 0 20 -4
48 -9 61 -13 32 -25 229 -17 261 7 30 52 56 96 56 20 0 33 6 37 18 12 32 52
65 65 55 37 -29 99 -19 151 24 16 12 40 23 54 23 15 0 35 8 45 17 19 17 21 15
64 -30 50 -54 106 -82 200 -98 77 -13 138 -8 184 15 41 20 86 20 124 1 37 -20
76 -20 76 0 0 8 4 15 10 15 18 0 81 63 106 106 26 45 64 61 64 27z m-140 -37
c0 -14 -29 -31 -38 -22 -2 3 -2 12 1 21 8 19 37 20 37 1z m-84 -44 c-12 -12
-19 -13 -27 -5 -16 16 -3 32 22 26 19 -5 19 -7 5 -21z m-1188 -712 c-2 -100
-3 -108 -19 -99 -10 5 -74 9 -143 9 -175 0 -221 21 -241 108 -5 24 -1 44 15
76 31 64 62 76 207 76 65 0 124 4 132 9 11 7 19 0 33 -31 14 -32 18 -63 16
-148z m1959 26 c15 -8 47 -22 71 -32 47 -19 52 -29 6 -14 -16 5 -74 17 -129
27 l-100 18 55 6 c30 3 58 6 62 7 3 1 19 -4 35 -12z m-52 -57 c5 -5 15 -9 23
-9 8 0 29 -7 48 -16 48 -23 37 -54 -18 -54 -16 0 -28 -5 -28 -11 0 -7 -10 -9
-27 -5 -96 24 -179 35 -255 35 -52 1 -88 5 -88 11 0 6 7 10 16 10 10 0 14 6
11 14 -7 16 25 34 73 40 54 6 234 -4 245 -15z m-1237 -18 c62 -31 155 -48 112
-21 -11 7 -8 10 14 10 31 0 66 -24 66 -45 0 -8 -28 -14 -77 -18 -142 -12 -177
-16 -238 -28 -33 -7 -64 -16 -69 -20 -20 -18 -24 -8 -23 43 2 44 5 53 22 56
11 2 29 7 40 12 11 5 38 11 60 13 22 2 48 4 58 5 9 1 25 -2 35 -7z m1132 -81
c51 -26 63 -45 24 -37 -16 4 -72 11 -124 17 -52 7 -96 13 -98 15 -2 2 16 10
40 19 51 18 104 13 158 -14z m563 -14 c15 -16 22 -70 33 -256 7 -122 16 -160
36 -160 24 0 50 81 30 94 -12 7 -8 76 7 111 7 17 14 46 15 65 7 98 15 114 68
138 46 22 51 22 74 7 30 -19 58 -61 49 -74 -3 -6 -18 -8 -33 -5 -22 4 -37 -4
-84 -46 -35 -31 -58 -60 -58 -72 0 -20 1 -20 19 -4 20 18 41 14 41 -7 0 -27
22 -87 32 -87 5 0 7 7 4 16 -13 33 48 125 73 109 16 -9 13 -48 -15 -180 -14
-66 -29 -151 -32 -188 -8 -72 -9 -74 -89 -138 -23 -17 -15 -29 13 -19 14 6 27
10 30 10 11 0 1 -38 -16 -60 -11 -14 -20 -37 -20 -51 0 -36 -31 -72 -80 -94
-40 -18 -43 -18 -55 -1 -16 22 -19 17 -54 -88 -15 -47 -32 -91 -38 -98 -6 -7
-13 -26 -17 -43 -4 -16 -11 -32 -14 -35 -14 -10 -62 -87 -62 -98 0 -15 -41
-79 -69 -109 -12 -12 -21 -28 -21 -35 -1 -15 -35 -58 -47 -58 -9 0 -53 -65
-53 -79 0 -5 -9 -13 -20 -16 -11 -3 -20 -11 -20 -16 0 -6 -27 -37 -60 -70
l-60 -59 -61 0 c-52 0 -62 -3 -66 -20 -3 -11 -9 -17 -15 -14 -5 3 -20 -2 -33
-10 -15 -10 -34 -14 -49 -10 -15 3 -27 1 -33 -8 -24 -39 -105 -45 -144 -11 -9
7 -23 11 -32 7 -11 -4 -19 0 -24 11 -6 17 -7 17 -21 -1 -9 -13 -16 -15 -19 -7
-2 7 -10 10 -18 7 -7 -3 -16 -1 -20 5 -8 14 -55 14 -55 0 0 -11 -16 -10 -113
7 -37 6 -38 6 -31 -20 7 -29 2 -31 -27 -16 -15 8 -19 7 -19 -4 0 -10 -11 -14
-42 -12 -37 1 -42 4 -40 21 3 17 2 17 -15 4 -10 -7 -21 -18 -26 -24 -4 -6 -15
-1 -26 13 -23 26 -34 28 -51 6 -12 -13 -19 -9 -62 33 -27 26 -59 66 -70 88
-50 97 -102 137 -91 71 4 -25 1 -35 -12 -40 -10 -3 -20 -4 -23 -1 -3 3 0 5 6
5 6 0 9 7 5 16 -5 15 -7 15 -15 0 -5 -9 -15 -16 -23 -16 -21 0 -141 124 -183
189 -20 31 -40 58 -43 61 -13 10 -87 138 -122 210 -24 49 -39 96 -43 138 -7
61 0 74 24 50 36 -36 15 68 -37 177 -32 67 -51 123 -51 149 0 9 -7 30 -15 46
-11 20 -11 30 -3 32 8 3 8 9 2 19 -10 15 -10 13 -20 216 -7 140 -6 143 17 178
13 19 30 35 36 35 16 0 36 -40 57 -113 21 -73 79 -182 119 -224 77 -81 235
-120 377 -93 69 13 155 47 153 59 -2 6 1 11 6 11 10 0 76 86 76 99 0 3 3 11 6
16 4 6 12 27 18 48 11 33 31 51 31 28 0 -15 33 -22 42 -9 14 22 9 58 -8 58
-13 0 -14 8 -8 48 8 55 12 62 24 42 15 -25 19 -7 9 39 -13 59 5 86 63 95 53 7
118 -7 135 -30 16 -22 17 -76 2 -91 -12 -12 -3 -37 11 -28 13 8 20 -36 8 -55
-9 -13 -5 -28 17 -69 17 -30 31 -47 35 -40 4 6 10 -2 13 -18 10 -44 81 -119
147 -152 166 -84 402 -52 503 70 44 53 87 152 103 237 8 42 17 87 20 99 2 12
14 25 27 28 37 11 86 35 93 46 17 28 94 38 117 15z m-1628 -16 c14 -6 -1 -9
-47 -9 -39 -1 -68 3 -68 9 0 12 87 12 115 0z m1323 -38 c42 -27 31 -159 -24
-268 -46 -92 -83 -130 -163 -166 -60 -28 -71 -29 -165 -26 -121 4 -169 23
-249 101 -52 52 -79 102 -111 207 -16 50 -16 59 -2 91 15 37 50 59 93 59 21 0
23 -2 13 -15 -22 -27 -4 -45 43 -45 25 0 61 -7 81 -15 20 -9 47 -13 61 -9 13
3 30 2 37 -2 18 -12 68 -14 68 -3 0 5 24 9 54 9 39 0 55 -4 60 -15 3 -8 13
-15 22 -15 9 0 14 6 11 13 -3 8 5 14 22 15 41 4 105 28 92 36 -15 10 -14 22 5
40 17 18 32 20 52 8z m-1104 -35 c22 -21 23 -26 16 -103 -11 -133 -70 -230
-176 -294 -58 -35 -59 -35 -179 -35 -133 0 -160 8 -234 71 -53 46 -110 160
-118 237 -4 38 -2 57 5 57 6 0 14 -4 17 -10 4 -6 13 -5 25 2 30 19 104 -5 147
-47 20 -19 40 -35 45 -35 16 0 8 -20 -9 -21 -12 -1 -9 -4 7 -8 14 -4 26 -4 28
-1 1 4 38 5 82 2 56 -3 80 -1 80 7 0 6 6 11 13 11 6 0 23 12 36 26 l25 26 -37
-7 c-79 -15 -171 -11 -197 9 -14 10 -18 16 -9 13 8 -3 35 -1 60 3 26 5 49 4
56 -1 8 -7 14 -5 20 5 4 8 15 14 23 13 8 -1 16 3 17 8 2 9 40 17 161 31 29 4
55 11 58 16 4 6 -6 21 -22 35 l-29 24 33 -6 c18 -4 43 -17 56 -28z m641 12
c10 -29 0 -34 -36 -19 -29 13 -30 14 -13 27 26 19 42 16 49 -8z m-1615 -28 c0
-17 16 -61 35 -100 21 -42 35 -84 35 -106 l0 -38 -107 6 c-90 4 -117 9 -160
31 -29 14 -67 26 -85 26 -45 0 -78 40 -78 95 0 67 24 81 150 90 58 4 125 10
150 15 25 4 48 8 53 9 4 0 7 -12 7 -28z m829 15 c12 -14 9 -18 -21 -29 -14 -5
-18 -1 -18 18 0 28 21 33 39 11z m-1405 -11 c22 -22 31 -82 17 -109 -8 -15
-23 -23 -44 -24 -26 -2 -36 3 -50 27 -24 41 -22 86 5 105 28 20 52 20 72 1z
m1646 -16 c0 -5 -4 -9 -10 -9 -5 0 -10 7 -10 16 0 8 5 12 10 9 6 -3 10 -10 10
-16z m-1007 -17 c-3 -12 -9 -19 -14 -16 -5 3 -3 14 3 24 15 24 19 21 11 -8z
m42 -374 c12 -109 12 -158 -2 -158 -16 0 -17 -16 -2 -25 16 -11 28 -49 18 -61
-6 -7 -29 -8 -71 -2 -35 4 -124 8 -198 9 -76 0 -140 5 -147 11 -18 15 -16 84
2 112 15 23 20 24 156 24 167 1 197 6 204 35 9 38 13 71 14 100 2 49 18 20 26
-45z m-1111 -530 c10 -14 16 -44 16 -78 0 -68 -19 -100 -60 -100 -46 0 -73 43
-68 107 3 32 12 61 23 73 24 27 70 26 89 -2z m3326 -534 c0 -96 24 -302 39
-344 5 -14 15 -55 21 -92 8 -41 19 -73 31 -84 10 -9 19 -25 19 -35 0 -28 56
-103 110 -149 57 -48 62 -71 35 -165 -42 -141 -166 -269 -360 -369 -173 -88
-383 -131 -635 -130 -282 2 -491 40 -760 139 -25 9 -60 29 -79 43 -18 15 -51
38 -72 52 -113 75 -238 251 -197 280 3 3 0 53 -8 110 -14 101 -14 424 0 438 3
3 7 -1 7 -9 1 -8 4 2 8 21 5 27 11 35 28 35 11 0 25 3 29 8 14 13 23 7 52 -35
41 -59 71 -90 115 -117 20 -12 37 -27 37 -32 0 -6 15 -26 33 -45 17 -18 44
-46 58 -61 48 -51 141 -128 181 -150 22 -12 47 -28 56 -35 9 -8 37 -21 60 -28
36 -11 47 -11 64 -1 15 9 23 10 31 2 16 -16 63 -13 77 4 7 8 23 15 35 15 12 0
28 7 35 15 7 8 27 15 46 15 18 0 36 5 39 10 3 6 17 7 31 4 16 -4 24 -2 24 7 0
10 13 14 46 12 60 -2 127 24 169 63 19 17 54 44 79 60 34 21 53 43 71 82 16
33 39 62 64 80 28 19 40 34 41 52 0 20 2 22 10 10 8 -12 10 -12 10 5 0 11 11
37 25 57 14 20 25 41 25 45 0 5 8 16 18 24 9 9 33 37 52 62 19 26 43 49 53 52
9 4 17 15 17 25 0 10 5 22 10 25 6 4 22 25 37 48 14 22 34 50 44 61 11 11 19
25 19 30 0 6 5 4 10 -4 5 -8 10 -56 10 -106z"/>
<path d="M3284 3289 c-16 -17 -37 -38 -46 -47 -23 -21 -22 -41 2 -72 11 -14
20 -32 20 -41 0 -9 7 -22 15 -29 8 -7 15 -18 15 -25 0 -6 12 -17 26 -24 l27
-12 -22 -20 c-17 -16 -21 -28 -17 -55 4 -19 2 -34 -4 -34 -6 0 -10 12 -10 26
l0 25 -37 -30 c-25 -21 -49 -31 -70 -31 -32 0 -83 -18 -83 -29 0 -3 -4 -12 -9
-19 -7 -12 -12 -12 -30 0 -20 12 -25 10 -47 -15 -20 -23 -24 -39 -24 -88 l0
-59 28 6 c15 4 35 16 44 28 14 17 19 19 29 9 7 -7 30 -13 51 -13 20 0 63 -7
95 -16 32 -9 65 -16 73 -16 8 -1 21 -5 28 -11 9 -7 16 -6 25 3 9 10 9 11 -1 5
-10 -5 -13 -2 -10 11 3 18 18 19 263 21 143 1 268 5 279 9 10 4 21 3 25 -2 9
-13 59 -10 124 10 46 13 65 15 98 6 31 -9 44 -8 55 1 11 9 18 9 26 1 7 -7 22
-12 35 -12 12 0 27 -8 32 -17 9 -15 10 -13 10 12 -1 79 -40 124 -112 128 -17
2 -37 6 -43 9 -40 26 -64 27 -84 6 -19 -21 -20 -21 -40 -3 -17 15 -20 16 -20
3 0 -9 -7 -18 -15 -22 -12 -4 -13 -2 -3 13 16 26 3 53 -24 49 -18 -2 -26 5
-37 30 -8 17 -21 32 -28 32 -7 0 -22 9 -34 21 -14 14 -24 17 -32 11 -8 -7 -16
-6 -24 3 -10 10 -7 14 15 20 68 16 110 38 122 63 21 46 27 76 19 97 -7 19 -8
19 -8 1 -1 -11 -8 -27 -16 -36 -14 -15 -21 -16 -50 -5 -21 7 -55 9 -86 5 -43
-6 -56 -13 -83 -44 -36 -43 -50 -45 -173 -20 -11 2 -42 24 -67 49 -51 49 -63
53 -81 29 -7 -10 -32 -19 -62 -21 -48 -5 -51 -4 -57 21 -8 33 16 91 43 106 12
6 21 15 21 20 0 20 -27 9 -56 -21z m340 -396 c4 -4 28 -9 54 -10 63 -4 138
-41 120 -59 -7 -6 -127 -18 -178 -18 -94 1 -209 17 -214 30 -8 22 21 36 86 41
35 3 70 9 78 14 19 10 44 11 54 2z"/>
<path d="M4667 3013 c-4 -3 -7 -15 -7 -25 0 -26 24 -17 28 10 3 21 -8 29 -21
15z"/>
<path d="M4137 2994 c-8 -8 1 -24 14 -24 5 0 9 7 9 15 0 15 -12 20 -23 9z"/>
<path d="M2970 2950 c0 -5 12 -10 28 -9 24 0 25 1 7 9 -27 12 -35 12 -35 0z"/>
<path d="M2760 2785 c0 -16 27 -32 37 -21 7 7 -16 36 -28 36 -5 0 -9 -7 -9
-15z"/>
<path d="M3500 2576 c0 -9 12 -16 32 -18 34 -3 50 -24 65 -83 l7 -30 4 35 c2
19 11 43 19 53 13 14 14 17 2 18 -8 0 -3 5 10 10 14 5 31 7 39 4 8 -3 12 0 10
7 -3 9 -34 14 -96 16 -76 2 -92 0 -92 -12z"/>
<path d="M3453 2563 c-22 -8 -15 -32 7 -26 11 3 20 12 20 19 0 14 -6 16 -27 7z"/>
<path d="M3530 2531 c0 -6 5 -13 10 -16 6 -3 10 1 10 9 0 9 -4 16 -10 16 -5 0
-10 -4 -10 -9z"/>
<path d="M2995 2490 c-7 -12 2 -30 16 -30 5 0 9 9 9 20 0 21 -15 27 -25 10z"/>
<path d="M4240 3649 c0 -7 -15 -10 -40 -7 -27 2 -40 0 -40 -9 0 -12 54 -9 90
4 8 4 23 5 33 4 9 -1 17 3 17 8 0 6 -13 11 -30 11 -16 0 -30 -5 -30 -11z"/>
<path d="M4075 3640 c3 -5 13 -10 21 -10 8 0 14 5 14 10 0 6 -9 10 -21 10 -11
0 -17 -4 -14 -10z"/>
<path d="M3760 1140 c0 -5 6 -10 13 -10 6 0 24 -7 40 -14 36 -20 35 -5 -2 17
-33 19 -51 22 -51 7z"/>
</g>
</svg>
